/vscmnt/brussel_pixiu_data/_data_brussel/112/vsc11236/PredSimResults/SUBJ06opt3D/expIG/worker_04.mot
version=1
nRows=5
nColumns=50
inDegrees=yes
endheader
                time	         pelvis_tilt	         pelvis_list	     pelvis_rotation	           pelvis_tx	           pelvis_ty	           pelvis_tz	       hip_flexion_r	     hip_adduction_r	      hip_rotation_r	        knee_angle_r	       ankle_angle_r	         mtp_angle_r	       hip_flexion_l	     hip_adduction_l	      hip_rotation_l	        knee_angle_l	       ankle_angle_l	         mtp_angle_l	    lumbar_extension	      lumbar_bending	     lumbar_rotation	 ercspn_r/activation	 intobl_r/activation	 extobl_r/activation	    abd_r/activation	    add_r/activation	hamstrings_r/activation	bifemsh_r/activation	glut_max_r/activation	iliopsoas_r/activation	rect_fem_r/activation	  vasti_r/activation	gastroc_r/activation	 soleus_r/activation	tib_ant_r/activation	 ercspn_l/activation	 intobl_l/activation	 extobl_l/activation	    abd_l/activation	    add_l/activation	hamstrings_l/activation	bifemsh_l/activation	glut_max_l/activation	iliopsoas_l/activation	rect_fem_l/activation	  vasti_l/activation	gastroc_l/activation	 soleus_l/activation	tib_ant_l/activation	
          1.35581277	         -2.31728779	         -3.43975885	          6.68111442	          1.22023149	          0.94638224	         -0.01596673	         24.89032174	          0.63433418	        -12.21834755	         -7.00044158	         -1.43192620	          0.20292257	        -10.65706730	         -4.56412418	         -9.17878061	        -11.37586660	          9.80356134	         28.67586141	         -6.03669765	          1.55504026	         -7.03742511	          0.19190698	          0.21336507	          0.00999999	          0.00999999	          0.24624725	          0.03804022	          0.01000000	          0.00999999	          0.14516824	          0.01944167	          0.09435601	          0.01225968	          0.00999999	          0.46135759	          0.09284358	          0.00999999	          0.00999999	          0.09536628	          0.00999999	          0.00999999	          0.19794682	          0.01696915	          0.20203774	          0.03395280	          0.00999999	          0.21086343	          0.33938040	          0.02074150	
          1.36937089	         -2.40199880	         -3.35781746	          6.64457391	          1.23540332	          0.94478183	         -0.01471673	         24.55057250	          0.77378515	        -12.18688509	         -7.33921736	         -1.84760073	          0.22116573	        -11.16065978	         -4.68533269	         -9.70754901	        -11.98888368	          9.07295325	         30.27501418	         -5.67317148	          1.83916553	         -7.47327847	          0.18673024	          0.18993885	          0.00999999	          0.00999999	          0.24225007	          0.03816501	          0.01000002	          0.00999999	          0.11841104	          0.01585821	          0.12047680	          0.00999999	          0.00999999	          0.47482718	          0.09307692	          0.00999999	          0.00999999	          0.07778850	          0.00999999	          0.00999999	          0.16146160	          0.01539290	          0.16479844	          0.02769467	          0.00999999	          0.19780992	          0.32426044	          0.01691846	
          1.38292902	         -2.47066791	         -3.28851219	          6.57264687	          1.25105560	          0.94337343	         -0.01346512	         24.02478041	          0.87768025	        -12.02481550	         -7.89588677	         -2.15441997	          0.18833373	        -11.63410734	         -4.83276693	        -10.24164239	        -12.72728275	          8.19605883	         31.90826366	         -5.27431278	          2.17070794	         -7.87175566	          0.15231239	          0.18090768	          0.00999999	          0.00999999	          0.19759889	          0.03857158	          0.01000001	          0.00999999	          0.09658569	          0.01293525	          0.12042745	          0.01301220	          0.01225968	          0.50722977	          0.10397191	          0.00999999	          0.00999999	          0.06345064	          0.00999999	          0.01000000	          0.14217671	          0.01255571	          0.13442304	          0.02259003	          0.00999999	          0.16903394	          0.30403610	          0.01380007	
          1.39648715	         -2.52713793	         -3.24379575	          6.45540158	          1.26698550	          0.94226789	         -0.01211564	         23.35911147	          1.00894082	        -12.01559628	         -8.30704461	         -2.46007944	          0.18024665	        -11.98865528	         -5.03406360	        -10.77902094	        -13.71994987	          7.16894518	         33.56905630	         -4.86367620	          2.54905935	         -8.22280646	          0.12423840	          0.14756304	          0.00999999	          0.02871723	          0.16117775	          0.05592810	          0.01000003	          0.01000001	          0.07878315	          0.01055104	          0.13484401	          0.01061381	          0.00999999	          0.54501768	          0.11699721	          0.00999999	          0.00999999	          0.05175551	          0.00999999	          0.00999999	          0.14322030	          0.01024146	          0.16035615	          0.01842627	          0.00999999	          0.13787785	          0.27895531	          0.01125646	
          1.41004528	         -2.57411036	         -3.22929741	          6.29177414	          1.28291975	          0.94165292	         -0.01062381	         22.66160364	          1.16661193	        -12.16096071	         -8.68429204	         -2.66951315	          0.14897793	        -12.10963480	         -5.31489425	        -11.31462357	        -15.12827642	          5.95507930	         35.26339326	         -4.47158255	          2.96955309	         -8.52130869	          0.11920756	          0.12036443	          0.00999999	          0.07507219	          0.13146970	          0.05858743	          0.01000001	          0.03090351	          0.06426196	          0.00999999	          0.14469210	          0.00999999	          0.00999999	          0.55473156	          0.15395528	          0.00999999	          0.00999999	          0.04221601	          0.00999999	          0.01346464	          0.11682216	          0.00999999	          0.13079955	          0.01502996	          0.00999999	          0.11246440	          0.25131206	          0.00999999	
